<svg width="900" height="640" viewBox="0 0 900 640" fill="none" xmlns="http://www.w3.org/2000/svg">
  <defs>
    <linearGradient id="a" x1="75" y1="80" x2="820" y2="590">
      <stop stop-color="#ffffff"/>
      <stop offset=".42" stop-color="#9ca5b0"/>
      <stop offset="1" stop-color="#0d0d0f"/>
    </linearGradient>
    <filter id="s" x="-20%" y="-20%" width="140%" height="140%">
      <feDropShadow dx="0" dy="25" stdDeviation="20" flood-color="#000" flood-opacity=".38"/>
    </filter>
  </defs>
  <rect width="900" height="640" rx="38" fill="#0b0b0d"/>
  <path d="M120 500V218L450 82l330 136v282" stroke="url(#a)" stroke-width="22" stroke-linejoin="round"/>
  <path d="M205 500V284h490v216" fill="#17181c" stroke="#ffffff" stroke-opacity=".5" stroke-width="8"/>
  <rect x="260" y="330" width="120" height="105" rx="12" fill="#ffffff" filter="url(#s)"/>
  <rect x="410" y="330" width="120" height="105" rx="12" fill="#c7ced8" filter="url(#s)"/>
  <rect x="560" y="330" width="120" height="105" rx="12" fill="#8b949f" filter="url(#s)"/>
  <rect x="330" y="455" width="120" height="105" rx="12" fill="#dce2ea" filter="url(#s)"/>
  <rect x="480" y="455" width="120" height="105" rx="12" fill="#ffffff" filter="url(#s)"/>
  <path d="M285 370h70M435 370h70M585 370h70M355 495h70M505 495h70" stroke="#0b0b0d" stroke-width="9" stroke-linecap="round"/>
  <circle cx="140" cy="120" r="8" fill="#fff" opacity=".85"/>
  <circle cx="760" cy="110" r="6" fill="#fff" opacity=".65"/>
  <circle cx="790" cy="520" r="10" fill="#fff" opacity=".38"/>
</svg>